<svg width="50" height="50" viewBox="0 0 50 50" fill="none" xmlns="http://www.w3.org/2000/svg">
<path d="M6.75923 12.6606C8.06631 11.747 10.0367 11.9222 11.2103 12.8914L9.86424 10.935C8.78103 9.39011 9.16899 7.71872 10.7152 6.63413C12.2615 5.5537 16.643 8.45847 16.643 8.45847C15.55 6.89832 15.7544 4.92102 17.3146 3.82669C18.8747 2.73653 21.0273 3.11336 22.1202 4.67629L36.6093 25.1446L34.7627 43.0474L19.3517 37.427L5.90963 17.4968C4.80696 15.9269 5.18796 13.7619 6.75923 12.6606Z" fill="#EF9645"/>
<path d="M3.74734 24.0475C3.74734 24.0475 2.17328 21.7531 4.46901 20.1805C6.76196 18.6078 8.33463 20.9008 8.33463 20.9008L15.6362 31.5493C15.8879 31.1293 16.1632 30.715 16.4705 30.3062L6.33646 15.5292C6.33646 15.5292 4.7638 13.2363 7.05814 11.6636C9.35109 10.0909 10.9238 12.3839 10.9238 12.3839L20.4557 26.2848C20.8103 25.9956 21.1732 25.705 21.5472 25.4199L10.4969 9.30251C10.4969 9.30251 8.9242 7.00956 11.2185 5.4369C13.5115 3.86423 15.0842 6.15718 15.0842 6.15718L26.1345 22.2718C26.5406 22.0229 26.9424 21.8074 27.3457 21.5793L17.017 6.51732C17.017 6.51732 15.4443 4.22437 17.7373 2.65171C20.0302 1.07904 21.6029 3.37199 21.6029 3.37199L32.5239 19.2989L34.1842 21.7212C27.304 26.4405 26.649 35.3189 30.58 41.052C31.3656 42.1992 32.5128 41.4136 32.5128 41.4136C27.7948 34.5319 29.2354 26.7993 36.117 22.0813L34.0883 11.9278C34.0883 11.9278 33.3304 9.25245 36.0044 8.49324C38.6797 7.73541 39.4389 10.4107 39.4389 10.4107L41.7819 17.3689C42.7108 20.1276 43.6995 22.8767 45.0079 25.4769C48.7025 32.8188 46.4958 41.9433 39.5293 46.7225C31.9302 51.9328 21.5417 49.9958 16.3301 42.398L3.74734 24.0475Z" fill="#E8EC3E"/>
<path d="M16.6861 44.4963C11.1241 44.4963 5.50367 38.8758 5.50367 33.3138C5.50367 32.5449 4.94052 31.9233 4.17156 31.9233C3.40261 31.9233 2.72265 32.5449 2.72265 33.3138C2.72265 41.6569 8.34309 47.2773 16.6861 47.2773C17.4551 47.2773 18.0767 46.5973 18.0767 45.8284C18.0767 45.0594 17.4551 44.4963 16.6861 44.4963Z" fill="#5DADEC"/>
<path d="M9.73357 47.219C5.56204 47.219 2.78102 44.4379 2.78102 40.2664C2.78102 39.4975 2.15946 38.8759 1.39051 38.8759C0.621558 38.8759 0 39.4975 0 40.2664C0 45.8284 4.17153 50 9.73357 50C10.5025 50 11.1241 49.3784 11.1241 48.6095C11.1241 47.8405 10.5025 47.219 9.73357 47.219ZM33.3722 2.72265C32.6047 2.72265 31.9817 3.3456 31.9817 4.11316C31.9817 4.88072 32.6047 5.50367 33.3722 5.50367C38.9343 5.50367 44.4963 10.4942 44.4963 16.6277C44.4963 17.3953 45.1192 18.0183 45.8868 18.0183C46.6544 18.0183 47.2773 17.3953 47.2773 16.6277C47.2773 8.96048 41.7153 2.72265 33.3722 2.72265Z" fill="#5DADEC"/>
<path d="M40.3248 0C39.5572 0 38.9343 0.564547 38.9343 1.33211C38.9343 2.09967 39.5572 2.78102 40.3248 2.78102C44.4963 2.78102 47.2189 5.8749 47.2189 9.67516C47.2189 10.4427 47.8989 11.0657 48.6678 11.0657C49.4368 11.0657 50 10.4427 50 9.67516C50 4.33978 45.8868 0 40.3248 0Z" fill="#5DADEC"/>
</svg>
