<svg width="34" height="34" viewBox="0 0 34 34" fill="none" xmlns="http://www.w3.org/2000/svg">
<circle cx="17" cy="17" r="16" stroke="white" stroke-width="2"/>
<path d="M24.0982 7.29413C24.0982 7.29413 22.6499 7.29413 21.1788 9.50001C20.4509 8.77138 18.2374 8.76449 17.504 8.76449C16.7678 8.76449 14.5557 8.77138 13.827 9.50001C12.356 7.29413 10.9111 7.29413 10.9111 7.29413C10.1246 9.26839 10.7402 10.6078 10.8884 10.9704C10.1536 11.7059 9.41528 12.4414 9.41528 16.1177C9.41528 19.7939 12.0885 21.6379 15.3009 21.9998C14.8879 22.3589 14.5653 23.4701 14.5653 24.2057C13.7402 24.5731 11.444 24.926 10.1536 22.7353C10.1536 22.7353 9.41804 21.2649 7.94768 21.2649C7.94768 21.2649 6.47732 21.1264 7.94768 22.0005C7.94768 22.0005 8.68321 22.736 9.41804 24.2064C9.41804 24.2064 10.541 27.278 14.5653 26.4122C14.5736 27.6082 14.5653 29.3536 14.5653 29.3536H20.444V24.2064C20.444 23.6246 20.1228 22.3589 19.7085 22.0005C22.9208 21.6386 25.5906 19.7946 25.5906 16.1183C25.5906 12.4421 24.8551 11.7066 24.1202 10.9711C24.2698 10.6078 24.884 9.26839 24.0982 7.29413V7.29413Z" fill="white"/>
</svg>
