<svg width="34" height="34" viewBox="0 0 34 34" fill="none" xmlns="http://www.w3.org/2000/svg">
<path d="M16.9899 0C7.62176 0 0 7.62616 0 17C0 26.3741 7.62176 34 16.9899 34C26.3583 34 33.9804 26.3741 33.9804 17C33.9801 7.62616 26.3581 0 16.9899 0ZM16.9899 32.3233C8.54565 32.3233 1.67573 25.4494 1.67573 17C1.67573 8.55085 8.54565 1.67669 16.9899 1.67669C25.4342 1.67669 32.3047 8.55085 32.3047 17C32.3044 25.4494 25.4342 32.3233 16.9899 32.3233Z" fill="white"/>
<path d="M12.2924 13.3979H8.36054V23.6632H12.2924V13.3979Z" fill="white"/>
<path d="M10.2873 11.7604C11.3864 11.7604 12.2773 10.9471 12.2773 9.94393C12.2773 8.94076 11.3864 8.12752 10.2873 8.12752C9.18834 8.12752 8.29742 8.94076 8.29742 9.94393C8.29742 10.9471 9.18834 11.7604 10.2873 11.7604Z" fill="white"/>
<path d="M22.1753 13.1659C21.3702 13.1659 20.6879 13.3127 20.127 13.6058C19.5668 13.8992 19.0132 14.3871 18.4656 15.0701V13.3979H14.8041V23.6632H18.7359V18.7334C18.7359 17.7989 18.8842 17.1517 19.1805 16.7907C19.4769 16.4299 19.8628 16.2494 20.3396 16.2494C20.7711 16.2494 21.106 16.3832 21.3445 16.6507C21.583 16.9181 21.7017 17.3739 21.7017 18.0186V23.6632H25.653V17.1389C25.653 15.7855 25.3453 14.7851 24.73 14.1373C24.1156 13.4895 23.2635 13.1659 22.1753 13.1659Z" fill="white"/>
</svg>
