<svg width="34" height="34" viewBox="0 0 34 34" fill="none" xmlns="http://www.w3.org/2000/svg">
<path d="M16.9899 0C7.62177 0 0 7.62617 0 17C0 26.3738 7.62177 34 16.9899 34C26.3584 34 33.9801 26.3738 33.9801 17C33.9801 7.62617 26.3581 0 16.9899 0ZM16.9899 32.3233C8.54566 32.3233 1.67573 25.4491 1.67573 17C1.67573 8.55086 8.54566 1.67669 16.9899 1.67669C25.4342 1.67669 32.3044 8.55086 32.3044 17C32.3044 25.4491 25.4342 32.3233 16.9899 32.3233Z" fill="white"/>
<path d="M22.356 8.89601H11.7235C10.1553 8.89601 8.87927 10.1725 8.87927 11.7419V22.4294C8.87927 23.9985 10.1551 25.2754 11.7235 25.2754H22.3558C23.924 25.2754 25.2 23.9988 25.2 22.4294V11.7416C25.2 10.1725 23.9242 8.89601 22.356 8.89601ZM19.4992 17.0554C19.4992 18.4124 18.396 19.5162 17.0398 19.5162C15.6836 19.5162 14.5804 18.4124 14.5804 17.0554C14.5804 16.3822 14.8524 15.7718 15.2914 15.3272H18.7879C19.2275 15.7718 19.4992 16.3822 19.4992 17.0554ZM20.2122 11.173H22.7035V13.7408H20.2122V11.173ZM22.356 23.5984H11.7235C11.0792 23.5984 10.555 23.0739 10.555 22.4292V15.3272H13.2876C13.0443 15.854 12.9047 16.4381 12.9047 17.0554C12.9047 19.3371 14.7597 21.1929 17.0398 21.1929C19.3199 21.1929 21.1749 19.3368 21.1749 17.0554C21.1749 16.4381 21.0353 15.854 20.792 15.3272H23.5243V22.4292C23.5243 23.0739 23.0001 23.5984 22.356 23.5984Z" fill="white"/>
</svg>
