<svg width="34" height="34" viewBox="0 0 34 34" fill="none" xmlns="http://www.w3.org/2000/svg">
<path d="M16.9825 0C7.61842 0 0 7.62281 0 16.9925C0 26.3625 7.61842 33.9851 16.9825 33.9851C26.3468 33.9851 33.9655 26.3625 33.9655 16.9925C33.9652 7.62281 26.3465 0 16.9825 0ZM16.9825 32.3091C8.5419 32.3091 1.67499 25.4382 1.67499 16.9925C1.67499 8.5471 8.5419 1.67596 16.9825 1.67596C25.423 1.67596 32.2905 8.5471 32.2905 16.9925C32.2902 25.4382 25.423 32.3091 16.9825 32.3091Z" fill="white"/>
<path d="M22.217 7.02171H18.5332C18.5245 7.02171 18.5161 7.02199 18.508 7.02283C14.7887 7.03456 14.303 9.63313 14.301 11.9043C14.296 11.9256 14.2932 11.9474 14.2932 11.97V13.5644H11.7478C11.5937 13.5644 11.4686 13.6895 11.4686 13.8437V17.7758C11.4686 17.9302 11.5937 18.0551 11.7478 18.0551H14.2932V26.6838C14.2932 26.8382 14.4183 26.9631 14.5724 26.9631H18.2872C18.4416 26.9631 18.5664 26.8382 18.5664 26.6838V18.0554H22.2167C22.3711 18.0554 22.4959 17.9305 22.4959 17.7761V13.844C22.4959 13.6898 22.3711 13.5646 22.2167 13.5646H18.2872V11.451H22.2167C22.3711 11.451 22.4959 11.3258 22.4959 11.1717V7.30104C22.4962 7.14685 22.3711 7.02171 22.217 7.02171Z" fill="white"/>
</svg>
