<svg width="34" height="34" viewBox="0 0 34 34" fill="none" xmlns="http://www.w3.org/2000/svg">
<path d="M16.9899 0C7.62176 0 0 7.62616 0 17C0 26.3741 7.62176 34 16.9899 34C26.3583 34 33.9804 26.3741 33.9804 17C33.9801 7.62616 26.3581 0 16.9899 0ZM16.9899 32.3233C8.54565 32.3233 1.67573 25.4494 1.67573 17C1.67573 8.55085 8.54565 1.67669 16.9899 1.67669C25.4342 1.67669 32.3047 8.55085 32.3047 17C32.3044 25.4494 25.4342 32.3233 16.9899 32.3233Z" fill="white"/>
<path d="M24.5774 11.4613C24.9679 11.2596 25.9029 10.6601 26.3437 9.37356C26.3437 9.37356 25.2815 10.142 23.8359 10.2326L23.8097 10.2471C23.0701 9.43951 22.0069 8.93287 20.8247 8.93287C18.5881 8.93287 16.7753 10.7471 16.7753 12.9849C16.7753 13.3244 16.8174 13.6542 16.8965 13.9694L16.8769 13.94C16.8769 13.94 12.5396 14.1887 8.45053 9.71281C8.45053 9.71281 6.6427 12.787 9.73805 15.138C9.06022 15.2509 7.86319 14.6406 7.86319 14.6406C7.86319 14.6406 7.93078 17.8727 11.1387 18.6641C10.6192 18.7999 9.64756 18.8446 9.33141 18.7094C9.33141 18.7094 9.80564 21.173 13.0817 21.6028C12.2458 22.0776 10.6871 23.524 7.16246 23.2527C7.16246 23.2527 9.69336 25.332 14.3924 25.0386C19.0914 24.7452 22.5029 21.5799 23.8809 18.2346C25.2589 14.8893 24.8754 12.9846 24.8754 12.9846C24.8754 12.9846 26.027 12.3799 26.8185 10.9334C26.4529 11.043 25.0969 11.3744 24.5923 11.4971C24.5872 11.4854 24.5822 11.4733 24.5774 11.4613Z" fill="white"/>
</svg>
